<svg width="24" height="24" viewBox="0 0 24 24" fill="none" xmlns="http://www.w3.org/2000/svg">
<g clip-path="url(#clip0_11_48)">
<rect width="24" height="24" fill="white"/>
<path d="M12 1.00205C12.5249 1.00205 13.0401 1.14076 13.4951 1.40244L13.4961 1.40147L20.4961 5.40147L20.5 5.4044L20.667 5.50791C21.0483 5.76276 21.3673 6.10249 21.5977 6.50108C21.8608 6.95645 21.9995 7.4732 22 7.99912V16.0011C21.9995 16.527 21.8608 17.0437 21.5977 17.4991C21.3344 17.9546 20.9556 18.3328 20.5 18.5958L20.4961 18.5987L13.4961 22.5987L13.4951 22.5978C13.0712 22.8415 12.5951 22.9768 12.1074 22.9942C12.0721 22.998 12.0363 23.0001 12 23.0001C11.9634 23.0001 11.9272 22.9981 11.8916 22.9942C11.404 22.9766 10.9277 22.8416 10.5039 22.5978V22.5987L3.50391 18.5987L3.5 18.5958C3.04444 18.3328 2.6656 17.9546 2.40234 17.4991C2.13918 17.0437 2.00055 16.527 2 16.0011V7.99912L2.00684 7.80186C2.03742 7.34459 2.17219 6.89939 2.40234 6.50108C2.66559 6.04567 3.04448 5.66744 3.5 5.4044L3.50391 5.40147L10.5039 1.40147V1.40244C10.9591 1.14048 11.4748 1.00205 12 1.00205ZM4 15.9991L4.00879 16.13C4.02601 16.2593 4.06815 16.3845 4.13379 16.4981C4.22077 16.6486 4.34602 16.7738 4.49609 16.8614L11 20.5772V12.5782L4 8.55576V15.9991ZM13 12.5782V20.5772L19.5039 16.8614C19.654 16.7738 19.7792 16.6486 19.8662 16.4981C19.9536 16.3467 19.9996 16.1749 20 16.0001V8.55576L13 12.5782ZM12 3.00205C11.8245 3.00205 11.652 3.0481 11.5 3.13584L11.4961 3.13779L5.02246 6.83604L12 10.8458L18.9766 6.83604L12.5039 3.13779L12.5 3.13584C12.348 3.0481 12.1755 3.00205 12 3.00205Z" fill="black"/>
</g>
<defs>
<clipPath id="clip0_11_48">
<rect width="24" height="24" fill="white"/>
</clipPath>
</defs>
</svg>
