<svg width="24" height="24" viewBox="0 0 24 24" fill="none" xmlns="http://www.w3.org/2000/svg">
<g clip-path="url(#clip0_11_43)">
<rect width="24" height="24" fill="white"/>
<path d="M16.1055 2.55273C16.3525 2.05876 16.9533 1.85848 17.4473 2.10547C17.9412 2.35246 18.1415 2.95329 17.8945 3.44727L17.0381 5.1582L17.8213 5.0166C18.3646 4.91786 18.8846 5.27794 18.9834 5.82129C19.0821 6.36463 18.7221 6.88461 18.1787 6.9834L15.9209 7.39355L15.1182 9L16.1182 11H18.001L19.2002 9.40039C19.5315 8.95861 20.1578 8.86896 20.5996 9.2002C21.0414 9.53153 21.131 10.1578 20.7998 10.5996L20.499 11H22C22.5523 11 23 11.4477 23 12C23 12.5523 22.5523 13 22 13H20.499L20.7998 13.4004C21.131 13.8422 21.0414 14.4685 20.5996 14.7998C20.1578 15.131 19.5315 15.0414 19.2002 14.5996L18.001 13H16.1182L15.1182 15L15.9209 16.6055L18.1787 17.0166C18.7221 17.1154 19.0821 17.6354 18.9834 18.1787C18.8846 18.7221 18.3646 19.0821 17.8213 18.9834L17.0381 18.8408L17.8945 20.5527C18.1415 21.0467 17.9412 21.6475 17.4473 21.8945C16.9533 22.1415 16.3525 21.9412 16.1055 21.4473L15.25 19.7363L14.8945 20.4473C14.6475 20.9412 14.0467 21.1415 13.5527 20.8945C13.0588 20.6475 12.8585 20.0467 13.1055 19.5527L14.1318 17.5L13.3818 16H10.6182L9.86816 17.5L10.8945 19.5527C11.1415 20.0467 10.9412 20.6475 10.4473 20.8945C9.95329 21.1415 9.35246 20.9412 9.10547 20.4473L8.75 19.7363L7.89453 21.4473C7.64754 21.9412 7.04671 22.1415 6.55273 21.8945C6.05876 21.6475 5.85848 21.0467 6.10547 20.5527L6.96094 18.8408L6.17871 18.9834C5.63537 19.0821 5.11539 18.7221 5.0166 18.1787C4.91786 17.6354 5.27794 17.1154 5.82129 17.0166L8.07812 16.6055L8.88184 15L7.88184 13H5.99902L4.7998 14.5996C4.46847 15.0414 3.84221 15.131 3.40039 14.7998C2.95861 14.4685 2.86896 13.8422 3.2002 13.4004L3.50098 13H2C1.44772 13 1 12.5523 1 12C1 11.4477 1.44772 11 2 11H3.50098L3.2002 10.5996C2.86896 10.1578 2.95861 9.53153 3.40039 9.2002C3.84221 8.86896 4.46847 8.95861 4.7998 9.40039L5.99902 11H7.88184L8.88184 9L8.07812 7.39355L5.82129 6.9834C5.27794 6.88461 4.91786 6.36463 5.0166 5.82129C5.11539 5.27794 5.63537 4.91786 6.17871 5.0166L6.96094 5.1582L6.10547 3.44727C5.85848 2.95329 6.05876 2.35246 6.55273 2.10547C7.04671 1.85848 7.64754 2.05876 7.89453 2.55273L8.75 4.26367L9.10547 3.55273C9.35246 3.05876 9.95329 2.85848 10.4473 3.10547C10.9412 3.35246 11.1415 3.95329 10.8945 4.44727L9.86816 6.5L10.6182 8H13.3818L14.1318 6.5L13.1055 4.44727C12.8585 3.95329 13.0588 3.35246 13.5527 3.10547C14.0467 2.85848 14.6475 3.05876 14.8945 3.55273L15.25 4.26367L16.1055 2.55273ZM9.61816 12L10.6182 14H13.3818L14.3818 12L13.3818 10H10.6182L9.61816 12Z" fill="black"/>
</g>
<defs>
<clipPath id="clip0_11_43">
<rect width="24" height="24" fill="white"/>
</clipPath>
</defs>
</svg>
