<svg width="24" height="24" viewBox="0 0 24 24" fill="none" xmlns="http://www.w3.org/2000/svg">
<g clip-path="url(#clip0_11_45)">
<rect width="24" height="24" fill="white"/>
<g clip-path="url(#clip1_11_45)">
<path d="M19.1288 13.7938C19.4 13.3129 20.01 13.1429 20.4911 13.4139L21.9911 14.2587L21.9931 14.2596C22.3008 14.4341 22.5571 14.6873 22.7352 14.993C22.9133 15.2986 23.0067 15.6462 23.0067 15.9999C23.0067 16.3535 22.9133 16.7011 22.7352 17.0067C22.5578 17.3112 22.3023 17.5628 21.996 17.7372L21.997 17.7381L13.4989 22.6053L13.4999 22.6063C13.0439 22.8695 12.5264 23.0077 11.9999 23.0077C11.4733 23.0077 10.9559 22.8696 10.4999 22.6063V22.6053L2.00282 17.7381V17.7372C1.69695 17.5628 1.44182 17.3109 1.26454 17.0067C1.08656 16.7011 0.993052 16.3535 0.993052 15.9999C0.993076 15.6462 1.08651 15.2986 1.26454 14.993C1.44265 14.6874 1.69893 14.4341 2.00672 14.2596L2.00965 14.2587L3.50965 13.4139C3.99066 13.1432 4.59985 13.313 4.87098 13.7938C5.142 14.2749 4.97207 14.885 4.4911 15.1561L2.99305 15.9999L2.99696 16.0028L11.497 20.8719L11.4999 20.8739C11.6519 20.9616 11.8244 21.0077 11.9999 21.0077C12.1754 21.0077 12.3479 20.9616 12.4999 20.8739L12.5028 20.8719L21.0028 16.0028L21.0067 15.9999V15.9989L19.5097 15.1561C19.0285 14.885 18.8577 14.275 19.1288 13.7938ZM21.0028 7.99791L12.5028 3.12779L12.4999 3.12584C12.3479 3.03813 12.1754 2.99205 11.9999 2.99205C11.8244 2.99207 11.6519 3.03809 11.4999 3.12584L11.497 3.12779L2.99696 7.99791L2.99305 7.99986L2.99696 8.00279L11.497 12.8719L11.4999 12.8739C11.6519 12.9616 11.8244 13.0077 11.9999 13.0077C12.1754 13.0077 12.3479 12.9616 12.4999 12.8739L12.5028 12.8719L21.0028 8.00279L21.0067 7.99986L21.0028 7.99791ZM23.0067 7.99986C23.0067 8.35354 22.9133 8.70109 22.7352 9.0067C22.5578 9.31124 22.3022 9.5628 21.996 9.73717L21.997 9.73814L13.4989 14.6053L13.4999 14.6063C13.0439 14.8695 12.5264 15.0077 11.9999 15.0077C11.4733 15.0077 10.9559 14.8696 10.4999 14.6063V14.6053L2.00282 9.73814V9.73717C1.69695 9.56282 1.44182 9.31094 1.26454 9.0067C1.08656 8.70111 0.993052 8.35351 0.993052 7.99986C0.993076 7.64619 1.08651 7.29862 1.26454 6.99303C1.44265 6.68735 1.69893 6.43406 2.00672 6.25963L10.5028 1.39244V1.39342C10.9583 1.13101 11.4742 0.99207 11.9999 0.99205C12.5252 0.99205 13.0407 1.13133 13.496 1.39342L13.497 1.39244L21.9921 6.25963H21.9931C22.3008 6.43406 22.5571 6.68735 22.7352 6.99303C22.9133 7.29865 23.0067 7.64615 23.0067 7.99986Z" fill="black"/>
</g>
</g>
<defs>
<clipPath id="clip0_11_45">
<rect width="24" height="24" fill="white"/>
</clipPath>
<clipPath id="clip1_11_45">
<rect width="24" height="24" fill="white"/>
</clipPath>
</defs>
</svg>
