<svg width="24" height="24" viewBox="0 0 24 24" fill="none" xmlns="http://www.w3.org/2000/svg">
<g clip-path="url(#clip0_11_42)">
<rect width="24" height="24" fill="white"/>
<path d="M7.92871 2.00293C8.33216 1.97426 8.71365 2.19097 8.89453 2.55273L12.2734 9.31152L16.293 5.29297L16.3897 5.20801C16.6262 5.02565 16.9344 4.95681 17.2295 5.02637C17.5667 5.10597 17.8386 5.35495 17.9482 5.68359L22.9482 20.6836C23.0499 20.9885 22.9995 21.3242 22.8115 21.585C22.6236 21.8457 22.3214 22 22 22H2C1.67857 22 1.37643 21.8457 1.18848 21.585C1.00053 21.3242 0.950112 20.9885 1.05176 20.6836L7.05176 2.68359L7.10938 2.5459C7.26679 2.23698 7.57579 2.02816 7.92871 2.00293ZM3.38672 20H20.6133L16.5625 7.85059L12.707 11.707C12.4798 11.9343 12.1571 12.0388 11.8398 11.9873C11.5226 11.9358 11.2492 11.7348 11.1055 11.4473L8.18457 5.60547L3.38672 20Z" fill="black"/>
</g>
<defs>
<clipPath id="clip0_11_42">
<rect width="24" height="24" fill="white"/>
</clipPath>
</defs>
</svg>
